<svg viewBox="0 0 935 1210" version="1.1" xmlns="http://www.w3.org/2000/svg">
<defs>
<style>
.g0_7{fill:#4E738A;}
.g1_7{fill:none;stroke:#4E738A;stroke-width:3.055;}
.g2_7{fill:none;stroke:#4E738A;stroke-width:3.055;stroke-miterlimit:10;}
.g3_7{fill:none;stroke:#4E738A;stroke-width:21.388;stroke-miterlimit:10;}
.g4_7{fill:none;stroke:#000;stroke-width:0.455;}
.g5_7{fill:#FFF;}
</style>
</defs>
<path d="M60.6 1180.8c6.7 0 12.1-5.5 12.1-12.1c0-6.7-5.4-12.1-12.1-12.1c-6.7 0-12.1 5.4-12.1 12.1c0 6.6 5.4 12.1 12.1 12.1Z" class="g0_7"/>
<path d="M47.8 1139.5H886.6" class="g1_7"/>
<path d="M48.1 49.3H886.9" class="g2_7"/>
<path d="M48.1 61H72.9" class="g3_7"/>
<path d="M45.4 191H448.3" class="g4_7"/>
<path d="M884.3 1125.7v0m0-40.1v40.1h40.1v-40.1H884.3m0 0v40.1h40.1v-40.1H884.3Z" class="g5_7"/>
<path d="M889.7 1150v0m0-40v40h40.1v-40H889.7m0 0v40h40.1v-40H889.7Z" class="g5_7"/>
<path d="M32.3 1205v0m0-40v40h40v-40h-40m0 0v40h40v-40h-40Z" class="g5_7"/>
<path d="M31.8 1202.8H857.7l57.3-57.3H89.1l-57.3 57.3m0-57.3v57.3H89.1v-57.3H31.8m825.9 0v57.3H915v-57.3H857.7Z" class="g5_7"/>
<path d="M45.4 239H448.3M43.4 362H446.3M43.4 410H446.3m42.1-218.5H891.3m-402.9 48H891.3m-404.9 123H889.3m-402.9 48H889.3" class="g4_7"/>
</svg>