<svg viewBox="0 0 935 1210" version="1.1" xmlns="http://www.w3.org/2000/svg">
<defs>
<style>
.g0_3{fill:#4E738A;}
.g1_3{fill:none;stroke:#4E738A;stroke-width:3.055;}
.g2_3{fill:#FFF;}
.g3_3{fill:none;stroke:#4E738A;stroke-width:3.055;stroke-miterlimit:10;}
.g4_3{fill:none;stroke:#4E738A;stroke-width:21.39;stroke-miterlimit:10;}
</style>
</defs>
<path d="M60.6 1180.8c6.7 0 12.1-5.5 12.1-12.1c0-6.7-5.4-12.1-12.1-12.1c-6.7 0-12.1 5.4-12.1 12.1c0 6.6 5.4 12.1 12.1 12.1Z" class="g0_3"/>
<path d="M47.8 1139.5H886.6" class="g1_3"/>
<path d="M88.8 1204.1H865.1l56.9-56.9H145.7l-56.9 56.9m0-56.9v56.9h56.9v-56.9H88.8m776.3 0v56.9H922v-56.9H865.1Z" class="g2_3"/>
<path d="M23.8 1199.6v0m0-56.9v56.9h57v-56.9h-57m0 0v56.9h57v-56.9h-57Z" class="g2_3"/>
<path d="M887.6 1119.1v0m0-31.7v31.7h31.7v-31.7H887.6m0 0v31.7h31.7v-31.7H887.6Z" class="g2_3"/>
<path d="M888.5 1147v0m0-31.6V1147h31.7v-31.6H888.5m0 0V1147h31.7v-31.6H888.5Z" class="g2_3"/>
<path d="M47.5 37.8H886.3" class="g3_3"/>
<path d="M47.5 49.5H72.3" class="g4_3"/>
<path d="M47.5 37.8H886.3" class="g3_3"/>
<path d="M47.5 49.5H72.3" class="g4_3"/>
<path d="M47.8 118.3H886.6" class="g3_3"/>
<path d="M47.8 130H72.6" class="g4_3"/>
<path d="M45.8 272.8H884.6" class="g3_3"/>
<path d="M45.8 284.5H70.6" class="g4_3"/>
<path d="M45.8 272.8H884.6" class="g3_3"/>
<path d="M45.8 284.5H70.6" class="g4_3"/>
<path d="M47.3 431.8H886.1" class="g3_3"/>
<path d="M47.3 443.5H72.1" class="g4_3"/>
<path d="M48.3 539.3H887.1" class="g3_3"/>
<path d="M48.3 551H73.1" class="g4_3"/>
<path d="M47.6 734.2H886.4" class="g3_3"/>
<path d="M47.6 745.9H72.4" class="g4_3"/>
</svg>