<svg viewBox="0 0 935 1210" version="1.1" xmlns="http://www.w3.org/2000/svg">
<defs>
<style>
.g0_6{fill:#4E738A;}
.g1_6{fill:none;stroke:#4E738A;stroke-width:3.055;stroke-miterlimit:10;}
.g2_6{fill:none;stroke:#4E738A;stroke-width:21.39;stroke-miterlimit:10;}
.g3_6{fill:#FFF;}
</style>
</defs>
<path d="M61.3 1180.8c6.6 0 12-5.5 12-12.1c0-6.7-5.4-12.1-12-12.1c-6.7 0-12.1 5.4-12.1 12.1c0 6.6 5.4 12.1 12.1 12.1Z" class="g0_6"/>
<path d="M46.1 52.1H884.9" class="g1_6"/>
<path d="M46.1 63.8H70.9" class="g2_6"/>
<path d="M35.4 1210.8h64l57.3-57.3h-64l-57.3 57.3m0-57.3v57.3H92.7v-57.3H35.4m64 0v57.3h57.3v-57.3H99.4Z" class="g3_6"/>
<path d="M49.3 1205.9H868l54.7-54.7H104l-54.7 54.7m0-54.7v54.7H104v-54.7H49.3m818.7 0v54.7h54.7v-54.7H868Z" class="g3_6"/>
<path d="M880.3 1129.2v0m0-54.6v54.6H935v-54.6H880.3m0 0v54.6H935v-54.6H880.3Z" class="g3_6"/>
<path d="M45.6 126.1H884.4" class="g1_6"/>
<path d="M45.6 137.8H70.4" class="g2_6"/>
<path d="M46.6 220.1H885.4" class="g1_6"/>
<path d="M46.6 231.8H71.4" class="g2_6"/>
<path d="M45.1 315.6H883.9" class="g1_6"/>
<path d="M45.1 327.3H69.9" class="g2_6"/>
<path d="M44.6 392.1H883.4" class="g1_6"/>
<path d="M44.6 403.8H69.4" class="g2_6"/>
<path d="M44.1 470.6H882.9" class="g1_6"/>
<path d="M44.1 482.3H68.9" class="g2_6"/>
<path d="M45.6 530.1H884.4" class="g1_6"/>
<path d="M45.6 541.8H70.4" class="g2_6"/>
<path d="M45.6 586.1H884.4" class="g1_6"/>
<path d="M45.6 597.8H70.4" class="g2_6"/>
<path d="M44.6 696.6H883.4" class="g1_6"/>
<path d="M44.6 708.3H69.4" class="g2_6"/>
<path d="M43.1 809.1H881.9" class="g1_6"/>
<path d="M43.1 820.8H67.9" class="g2_6"/>
<path d="M40.6 903.6H879.4" class="g1_6"/>
<path d="M40.6 915.3H65.4" class="g2_6"/>
<path d="M40.6 1015.6H879.4" class="g1_6"/>
<path d="M40.6 1027.3H65.4" class="g2_6"/>
<path d="M38.5 1097.1H877.3" class="g1_6"/>
<path d="M38.5 1108.8H63.3" class="g2_6"/>
</svg>