<svg viewBox="0 0 935 1210" version="1.1" xmlns="http://www.w3.org/2000/svg">
<defs>
<style>
.g0_5{fill:#4E738A;}
.g1_5{fill:none;stroke:#4E738A;stroke-width:3.055;}
.g2_5{fill:none;stroke:#4E738A;stroke-width:3.055;stroke-miterlimit:10;}
.g3_5{fill:none;stroke:#4E738A;stroke-width:21.388;stroke-miterlimit:10;}
.g4_5{fill:#FFF;}
.g5_5{fill:none;stroke:#4E738A;stroke-width:21.39;stroke-miterlimit:10;}
</style>
</defs>
<path d="M60.6 1180.8c6.7 0 12.1-5.5 12.1-12.1c0-6.7-5.4-12.1-12.1-12.1c-6.7 0-12.1 5.4-12.1 12.1c0 6.6 5.4 12.1 12.1 12.1Z" class="g0_5"/>
<path d="M47.8 1139.5H886.6" class="g1_5"/>
<path d="M48.1 43.2H886.9" class="g2_5"/>
<path d="M48.1 54.8H72.9" class="g3_5"/>
<path d="M30 1209.1H846.8l57.3-57.3H87.3L30 1209.1m0-57.3v57.3H87.3v-57.3H30m816.8 0v57.3h57.3v-57.3H846.8Z" class="g4_5"/>
<path d="M49.8 365.3H888.6" class="g2_5"/>
<path d="M49.8 377H74.6" class="g5_5"/>
<path d="M48.8 473.3H887.6" class="g2_5"/>
<path d="M48.8 485H73.6" class="g5_5"/>
<path d="M45.5 569.5H884.3" class="g2_5"/>
<path d="M45.5 581.2H70.3" class="g5_5"/>
<path d="M46 678H884.8" class="g2_5"/>
<path d="M46 689.7H70.8" class="g5_5"/>
<path d="M45 847H883.8" class="g2_5"/>
<path d="M45 858.7H69.8" class="g5_5"/>
<path d="M45.5 955.5H884.3" class="g2_5"/>
<path d="M45.5 967.2H70.3" class="g5_5"/>
</svg>