<svg viewBox="0 0 909 1286" version="1.1" xmlns="http://www.w3.org/2000/svg">
<defs>
<style>
.g0_2{fill:none;stroke:#000;stroke-width:0.455;}
.g1_2{fill:none;stroke:#000;stroke-width:0.458;}
</style>
</defs>
<path d="M383.2 77.5H676.4M36.2 204.6H432.1m39.6 0H873.1M148.3 235.4H433.2m149 0h291M36.3 265.6H301.9m9.4 0H433m38.7 0H737.3m14 0H873M213 359H429.9m220.1-.4H866.8m-828 31.1h393m40.4-1.5h393M37.3 507.7H433.1m37.1-30.5H871.6M148.3 538.8H433.2m149 0h291M36.3 569H301.9m9.4 0H433m38.7 0H737.3m14 0H873" class="g0_2"/>
<path d="M145.9 295.3v18.4h18.3V301.8m0 0v11.9h18.3V301.8v11.9h18.4V301.8v11.9m0-11.9v11.9h18.3V295.3m5.6 0v18.4h18.3V301.8m0 0v11.9m0-11.9v11.9h18.3V295.3m5.4 0v18.4h18.3V301.8m0 0v11.9m0-11.9v11.9h18.4V295.3m275.7 .8v18.4h18.3V302.6m0 0v11.9h18.3V302.6v11.9h18.4V302.6v11.9m0-11.9v11.9h18.3V296.1m5.5 0v18.4h18.4V302.6m0 0v11.9m0-11.9v11.9h18.3V296.1m5.4 0v18.4h18.3V302.6m0 0v11.9m0-11.9v11.9h18.3V296.1" class="g1_2"/>
<path d="M34.2 177.1H430.1m40.1 0H871.6M37.3 477.7H433.1m38.6 30H873.1M212.6 653.4H429.4m218.6 .1H864.9M35.8 684.1h393m42.4 0h393M35.8 775.4H431.6m39.6 0H867M215.9 877H430.4m220.9 0H873.2M35.8 908.7H431.6m44.2 0H871.6M35.8 969.8H431.6m39.6 0H867M215.9 1071.4H430.4m220.9 0H873.2M35.8 1103H431.6m44.2 0H871.6" class="g0_2"/>
<path d="M145.4 598.7v18.4h18.3V605.2m0 0v11.9h18.4V605.2v11.9h18.3V605.2v11.9m0-11.9v11.9h18.3V598.7m5.6 0v18.4h18.3V605.2m0 0v11.9m0-11.9v11.9h18.3V598.7m5.4 0v18.4h18.4V605.2m0 0v11.9m0-11.9v11.9H303V598.7m275.7 .8v18.4H597V606m0 0v11.9h18.4V606v11.9h18.3V606v11.9m0-11.9v11.9H652V599.5m5.6 0v18.4h18.3V606m0 0v11.9m0-11.9v11.9h18.3V599.5m5.4 0v18.4h18.3V606m0 0v11.9m0-11.9v11.9h18.4V599.5M145.1 825.1v18.3h18.3V831.6m0 0v11.8h18.3V831.6v11.8h18.4V831.6v11.8m0-11.8v11.8h18.3V825.1m5.6 0v18.3h18.3V831.6m0 0v11.8m0-11.8v11.8h18.3V825.1m5.4 0v18.3h18.3V831.6m0 0v11.8m0-11.8v11.8h18.4V825.1m276.9 .4v18.3H598V832m0 0v11.8h18.3V832v11.8h18.3V832v11.8m0-11.8v11.8H653V825.5m5.5 0v18.3h18.3V832m0 0v11.8m0-11.8v11.8h18.4V825.5m5.3 0v18.3h18.4V832m0 0v11.8m0-11.8v11.8h18.3V825.5M145.1 1019.4v18.4h18.3v-11.9m0 0v11.9h18.3v-11.9v11.9h18.4v-11.9v11.9m0-11.9v11.9h18.3v-18.4m5.6 0v18.4h18.3v-11.9m0 0v11.9m0-11.9v11.9h18.3v-18.4m5.4 0v18.4h18.3v-11.9m0 0v11.9m0-11.9v11.9h18.4v-18.4m276.9 .4v18.4H598v-11.9m0 0v11.9h18.3v-11.9v11.9h18.3v-11.9v11.9m0-11.9v11.9H653v-18.4m5.5 0v18.4h18.3v-11.9m0 0v11.9m0-11.9v11.9h18.4v-18.4m5.3 0v18.4h18.4v-11.9m0 0v11.9m0-11.9v11.9h18.3v-18.4" class="g1_2"/>
</svg>